<mxfile host="app.diagrams.net" modified="2021-09-20T11:01:08.156Z" agent="5.0 (Windows NT 10.0; Win64; x64) AppleWebKit/537.36 (KHTML, like Gecko) Chrome/93.0.4577.82 Safari/537.36" etag="hOQkRXc3BbG_Lj66iV8K" version="15.2.9" type="github">
  <diagram id="-2KBxyQ0JONFqMdHkOVX" name="Page-1">
    <mxGraphModel dx="1221" dy="644" grid="1" gridSize="10" guides="1" tooltips="1" connect="1" arrows="1" fold="1" page="1" pageScale="1" pageWidth="1169" pageHeight="827" math="0" shadow="0">
      <root>
        <mxCell id="0" />
        <mxCell id="1" parent="0" />
        <mxCell id="etBZ5mgMGRcYt6O1adPR-24" value="Students have group" style="edgeStyle=orthogonalEdgeStyle;rounded=0;orthogonalLoop=1;jettySize=auto;html=1;fontFamily=Verdana;fontSize=13;endArrow=ERone;endFill=0;startArrow=ERmany;startFill=0;" parent="1" source="etBZ5mgMGRcYt6O1adPR-15" target="etBZ5mgMGRcYt6O1adPR-18" edge="1">
          <mxGeometry relative="1" as="geometry">
            <mxPoint x="490" y="145" as="targetPoint" />
          </mxGeometry>
        </mxCell>
        <mxCell id="etBZ5mgMGRcYt6O1adPR-15" value="&lt;div style=&quot;text-align: center ; font-size: 13px&quot;&gt;&lt;b style=&quot;font-size: 13px&quot;&gt;Student&lt;/b&gt;&lt;/div&gt;&lt;hr style=&quot;font-size: 13px&quot;&gt;&lt;table style=&quot;font-size: 13px&quot;&gt;&lt;tbody style=&quot;font-size: 13px&quot;&gt;&lt;tr style=&quot;font-size: 13px&quot;&gt;&lt;td style=&quot;font-size: 13px&quot;&gt;&lt;u&gt;student_id&lt;/u&gt;&lt;/td&gt;&lt;td style=&quot;font-size: 13px&quot;&gt;&lt;blockquote style=&quot;margin: 0px 0px 0px 40px ; border: none ; padding: 0px ; font-size: 13px&quot;&gt;id&lt;/blockquote&gt;&lt;/td&gt;&lt;td style=&quot;font-size: 13px&quot;&gt;&lt;blockquote style=&quot;margin: 0px 0px 0px 40px ; border: none ; padding: 0px ; font-size: 13px&quot;&gt;M, PK&lt;/blockquote&gt;&lt;/td&gt;&lt;/tr&gt;&lt;tr style=&quot;font-size: 13px&quot;&gt;&lt;td style=&quot;font-size: 13px&quot;&gt;student_forename&lt;/td&gt;&lt;td style=&quot;font-size: 13px&quot;&gt;&lt;blockquote style=&quot;margin: 0px 0px 0px 40px ; border: none ; padding: 0px ; font-size: 13px&quot;&gt;name&lt;/blockquote&gt;&lt;/td&gt;&lt;td style=&quot;font-size: 13px&quot;&gt;&lt;blockquote style=&quot;margin: 0px 0px 0px 40px ; border: none ; padding: 0px ; font-size: 13px&quot;&gt;M&lt;/blockquote&gt;&lt;/td&gt;&lt;/tr&gt;&lt;tr style=&quot;font-size: 13px&quot;&gt;&lt;td style=&quot;font-size: 13px&quot;&gt;student_surname&lt;/td&gt;&lt;td style=&quot;font-size: 13px&quot;&gt;&lt;blockquote style=&quot;margin: 0px 0px 0px 40px ; border: none ; padding: 0px ; font-size: 13px&quot;&gt;name&lt;/blockquote&gt;&lt;/td&gt;&lt;td style=&quot;font-size: 13px&quot;&gt;&lt;blockquote style=&quot;margin: 0px 0px 0px 40px ; border: none ; padding: 0px ; font-size: 13px&quot;&gt;M&lt;/blockquote&gt;&lt;/td&gt;&lt;/tr&gt;&lt;tr style=&quot;font-size: 13px&quot;&gt;&lt;td style=&quot;font-size: 13px&quot;&gt;student_sex&lt;/td&gt;&lt;td style=&quot;font-size: 13px&quot;&gt;&lt;blockquote style=&quot;margin: 0px 0px 0px 40px ; border: none ; padding: 0px ; font-size: 13px&quot;&gt;sex&lt;/blockquote&gt;&lt;/td&gt;&lt;td style=&quot;font-size: 13px&quot;&gt;&lt;blockquote style=&quot;margin: 0px 0px 0px 40px ; border: none ; padding: 0px ; font-size: 13px&quot;&gt;M&lt;/blockquote&gt;&lt;/td&gt;&lt;/tr&gt;&lt;/tbody&gt;&lt;/table&gt;" style="rounded=0;whiteSpace=wrap;html=1;labelBackgroundColor=none;fontFamily=Verdana;fontSize=13;align=left;verticalAlign=top;" parent="1" vertex="1">
          <mxGeometry x="91.25" y="70" width="300" height="130" as="geometry" />
        </mxCell>
        <mxCell id="etBZ5mgMGRcYt6O1adPR-18" value="&lt;div style=&quot;text-align: center ; font-size: 13px&quot;&gt;&lt;b style=&quot;font-size: 13px&quot;&gt;Group&lt;/b&gt;&lt;/div&gt;&lt;hr style=&quot;font-size: 13px&quot;&gt;&lt;table style=&quot;font-size: 13px&quot;&gt;&lt;tbody style=&quot;font-size: 13px&quot;&gt;&lt;tr style=&quot;font-size: 13px&quot;&gt;&lt;td style=&quot;font-size: 13px&quot;&gt;&lt;u&gt;group_id&lt;/u&gt;&lt;/td&gt;&lt;td style=&quot;font-size: 13px&quot;&gt;&lt;blockquote style=&quot;margin: 0px 0px 0px 40px ; border: none ; padding: 0px ; font-size: 13px&quot;&gt;id&lt;/blockquote&gt;&lt;/td&gt;&lt;td style=&quot;font-size: 13px&quot;&gt;&lt;blockquote style=&quot;margin: 0px 0px 0px 40px ; border: none ; padding: 0px ; font-size: 13px&quot;&gt;M, PK&lt;/blockquote&gt;&lt;/td&gt;&lt;/tr&gt;&lt;tr style=&quot;font-size: 13px&quot;&gt;&lt;td style=&quot;font-size: 13px&quot;&gt;group_name&lt;/td&gt;&lt;td style=&quot;font-size: 13px&quot;&gt;&lt;blockquote style=&quot;margin: 0px 0px 0px 40px ; border: none ; padding: 0px ; font-size: 13px&quot;&gt;group_name&lt;/blockquote&gt;&lt;/td&gt;&lt;td style=&quot;font-size: 13px&quot;&gt;&lt;blockquote style=&quot;margin: 0px 0px 0px 40px ; border: none ; padding: 0px ; font-size: 13px&quot;&gt;M, K1&lt;/blockquote&gt;&lt;/td&gt;&lt;/tr&gt;&lt;/tbody&gt;&lt;/table&gt;" style="rounded=0;whiteSpace=wrap;html=1;labelBackgroundColor=none;fontFamily=Verdana;fontSize=13;align=left;verticalAlign=top;" parent="1" vertex="1">
          <mxGeometry x="740" y="90" width="310" height="90" as="geometry" />
        </mxCell>
        <mxCell id="etBZ5mgMGRcYt6O1adPR-19" value="&lt;div style=&quot;text-align: center ; font-size: 13px&quot;&gt;&lt;b style=&quot;font-size: 13px&quot;&gt;Teacher&lt;/b&gt;&lt;/div&gt;&lt;hr style=&quot;font-size: 13px&quot;&gt;&lt;table style=&quot;font-size: 13px&quot;&gt;&lt;tbody style=&quot;font-size: 13px&quot;&gt;&lt;tr style=&quot;font-size: 13px&quot;&gt;&lt;td style=&quot;font-size: 13px&quot;&gt;&lt;u&gt;teacher_id&lt;/u&gt;&lt;/td&gt;&lt;td style=&quot;font-size: 13px&quot;&gt;&lt;blockquote style=&quot;margin: 0px 0px 0px 40px ; border: none ; padding: 0px ; font-size: 13px&quot;&gt;id&lt;/blockquote&gt;&lt;/td&gt;&lt;td style=&quot;font-size: 13px&quot;&gt;&lt;blockquote style=&quot;margin: 0px 0px 0px 40px ; border: none ; padding: 0px ; font-size: 13px&quot;&gt;M, PK&lt;/blockquote&gt;&lt;/td&gt;&lt;/tr&gt;&lt;tr style=&quot;font-size: 13px&quot;&gt;&lt;td style=&quot;font-size: 13px&quot;&gt;teacher_forename&lt;/td&gt;&lt;td style=&quot;font-size: 13px&quot;&gt;&lt;blockquote style=&quot;margin: 0px 0px 0px 40px ; border: none ; padding: 0px ; font-size: 13px&quot;&gt;name&lt;/blockquote&gt;&lt;/td&gt;&lt;td style=&quot;font-size: 13px&quot;&gt;&lt;blockquote style=&quot;margin: 0px 0px 0px 40px ; border: none ; padding: 0px ; font-size: 13px&quot;&gt;M&lt;/blockquote&gt;&lt;/td&gt;&lt;/tr&gt;&lt;tr style=&quot;font-size: 13px&quot;&gt;&lt;td style=&quot;font-size: 13px&quot;&gt;teacher_surname&lt;/td&gt;&lt;td style=&quot;font-size: 13px&quot;&gt;&lt;blockquote style=&quot;margin: 0px 0px 0px 40px ; border: none ; padding: 0px ; font-size: 13px&quot;&gt;name&lt;/blockquote&gt;&lt;/td&gt;&lt;td style=&quot;font-size: 13px&quot;&gt;&lt;blockquote style=&quot;margin: 0px 0px 0px 40px ; border: none ; padding: 0px ; font-size: 13px&quot;&gt;M&lt;/blockquote&gt;&lt;/td&gt;&lt;/tr&gt;&lt;tr style=&quot;font-size: 13px&quot;&gt;&lt;td style=&quot;font-size: 13px&quot;&gt;teacher_sex&lt;/td&gt;&lt;td style=&quot;font-size: 13px&quot;&gt;&lt;blockquote style=&quot;margin: 0px 0px 0px 40px ; border: none ; padding: 0px ; font-size: 13px&quot;&gt;sex&lt;/blockquote&gt;&lt;/td&gt;&lt;td style=&quot;font-size: 13px&quot;&gt;&lt;blockquote style=&quot;margin: 0px 0px 0px 40px ; border: none ; padding: 0px ; font-size: 13px&quot;&gt;M&lt;/blockquote&gt;&lt;/td&gt;&lt;/tr&gt;&lt;/tbody&gt;&lt;/table&gt;" style="rounded=0;whiteSpace=wrap;html=1;labelBackgroundColor=none;fontFamily=Verdana;fontSize=13;align=left;verticalAlign=top;" parent="1" vertex="1">
          <mxGeometry x="140" y="490" width="300" height="130" as="geometry" />
        </mxCell>
        <mxCell id="etBZ5mgMGRcYt6O1adPR-20" value="&lt;div style=&quot;text-align: center ; font-size: 13px&quot;&gt;&lt;b style=&quot;font-size: 13px&quot;&gt;Course&lt;/b&gt;&lt;/div&gt;&lt;hr style=&quot;font-size: 13px&quot;&gt;&lt;table style=&quot;font-size: 13px&quot;&gt;&lt;tbody style=&quot;font-size: 13px&quot;&gt;&lt;tr style=&quot;font-size: 13px&quot;&gt;&lt;td style=&quot;font-size: 13px&quot;&gt;&lt;u&gt;course_id&lt;/u&gt;&lt;/td&gt;&lt;td style=&quot;font-size: 13px&quot;&gt;&lt;blockquote style=&quot;margin: 0px 0px 0px 40px ; border: none ; padding: 0px ; font-size: 13px&quot;&gt;id&lt;/blockquote&gt;&lt;/td&gt;&lt;td style=&quot;font-size: 13px&quot;&gt;&lt;blockquote style=&quot;margin: 0px 0px 0px 40px ; border: none ; padding: 0px ; font-size: 13px&quot;&gt;M, PK&lt;/blockquote&gt;&lt;/td&gt;&lt;/tr&gt;&lt;tr style=&quot;font-size: 13px&quot;&gt;&lt;td style=&quot;font-size: 13px&quot;&gt;course_name&lt;/td&gt;&lt;td style=&quot;font-size: 13px&quot;&gt;&lt;blockquote style=&quot;margin: 0px 0px 0px 40px ; border: none ; padding: 0px ; font-size: 13px&quot;&gt;course_name&lt;/blockquote&gt;&lt;/td&gt;&lt;td style=&quot;font-size: 13px&quot;&gt;&lt;blockquote style=&quot;margin: 0px 0px 0px 40px ; border: none ; padding: 0px ; font-size: 13px&quot;&gt;M&lt;/blockquote&gt;&lt;/td&gt;&lt;/tr&gt;&lt;tr style=&quot;font-size: 13px&quot;&gt;&lt;td style=&quot;font-size: 13px&quot;&gt;semester&lt;/td&gt;&lt;td style=&quot;font-size: 13px&quot;&gt;&lt;blockquote style=&quot;margin: 0px 0px 0px 40px ; border: none ; padding: 0px ; font-size: 13px&quot;&gt;semester&lt;/blockquote&gt;&lt;/td&gt;&lt;td style=&quot;font-size: 13px&quot;&gt;&lt;blockquote style=&quot;margin: 0px 0px 0px 40px ; border: none ; padding: 0px ; font-size: 13px&quot;&gt;M&lt;/blockquote&gt;&lt;/td&gt;&lt;/tr&gt;&lt;tr style=&quot;font-size: 13px&quot;&gt;&lt;td style=&quot;font-size: 13px&quot;&gt;is_elective&lt;/td&gt;&lt;td style=&quot;font-size: 13px&quot;&gt;&lt;blockquote style=&quot;margin: 0px 0px 0px 40px ; border: none ; padding: 0px ; font-size: 13px&quot;&gt;boolean&lt;/blockquote&gt;&lt;/td&gt;&lt;td style=&quot;font-size: 13px&quot;&gt;&lt;blockquote style=&quot;margin: 0px 0px 0px 40px ; border: none ; padding: 0px ; font-size: 13px&quot;&gt;M&lt;/blockquote&gt;&lt;/td&gt;&lt;/tr&gt;&lt;/tbody&gt;&lt;/table&gt;" style="rounded=0;whiteSpace=wrap;html=1;labelBackgroundColor=none;fontFamily=Verdana;fontSize=13;align=left;verticalAlign=top;" parent="1" vertex="1">
          <mxGeometry x="735" y="250" width="320" height="130" as="geometry" />
        </mxCell>
        <mxCell id="etBZ5mgMGRcYt6O1adPR-21" value="&lt;div style=&quot;text-align: center ; font-size: 13px&quot;&gt;&lt;b style=&quot;font-size: 13px&quot;&gt;Mark&lt;/b&gt;&lt;/div&gt;&lt;hr style=&quot;font-size: 13px&quot;&gt;&lt;table style=&quot;font-size: 13px&quot;&gt;&lt;tbody style=&quot;font-size: 13px&quot;&gt;&lt;tr&gt;&lt;td&gt;mark_id&lt;/td&gt;&lt;td&gt;&lt;blockquote style=&quot;margin: 0 0 0 40px ; border: none ; padding: 0px&quot;&gt;id&lt;/blockquote&gt;&lt;/td&gt;&lt;td&gt;&lt;blockquote style=&quot;margin: 0 0 0 40px ; border: none ; padding: 0px&quot;&gt;M, PK&lt;/blockquote&gt;&lt;/td&gt;&lt;/tr&gt;&lt;tr style=&quot;font-size: 13px&quot;&gt;&lt;td style=&quot;font-size: 13px&quot;&gt;points&lt;/td&gt;&lt;td style=&quot;font-size: 13px&quot;&gt;&lt;blockquote style=&quot;margin: 0px 0px 0px 40px ; border: none ; padding: 0px ; font-size: 13px&quot;&gt;points&lt;/blockquote&gt;&lt;/td&gt;&lt;td style=&quot;font-size: 13px&quot;&gt;&lt;blockquote style=&quot;margin: 0px 0px 0px 40px ; border: none ; padding: 0px ; font-size: 13px&quot;&gt;M&lt;/blockquote&gt;&lt;/td&gt;&lt;/tr&gt;&lt;/tbody&gt;&lt;/table&gt;" style="rounded=0;whiteSpace=wrap;html=1;labelBackgroundColor=none;fontFamily=Verdana;fontSize=13;align=left;verticalAlign=top;" parent="1" vertex="1">
          <mxGeometry x="465" y="390" width="240" height="86" as="geometry" />
        </mxCell>
        <mxCell id="etBZ5mgMGRcYt6O1adPR-27" value="" style="endArrow=none;html=1;fontFamily=Verdana;fontSize=13;edgeStyle=orthogonalEdgeStyle;rounded=0;endFill=0;startArrow=ERmany;startFill=0;entryX=0.5;entryY=0;entryDx=0;entryDy=0;" parent="1" source="etBZ5mgMGRcYt6O1adPR-15" target="UJ1096FwmQBo0KDrU6Bx-1" edge="1">
          <mxGeometry width="50" height="50" relative="1" as="geometry">
            <mxPoint x="620" y="340" as="sourcePoint" />
            <mxPoint x="670" y="290" as="targetPoint" />
          </mxGeometry>
        </mxCell>
        <mxCell id="etBZ5mgMGRcYt6O1adPR-28" value="" style="endArrow=none;html=1;fontFamily=Verdana;fontSize=13;edgeStyle=orthogonalEdgeStyle;rounded=0;endFill=0;startArrow=ERmany;startFill=0;entryX=1;entryY=0.5;entryDx=0;entryDy=0;" parent="1" source="etBZ5mgMGRcYt6O1adPR-20" target="UJ1096FwmQBo0KDrU6Bx-1" edge="1">
          <mxGeometry width="50" height="50" relative="1" as="geometry">
            <mxPoint x="285" y="230" as="sourcePoint" />
            <mxPoint x="285" y="350" as="targetPoint" />
          </mxGeometry>
        </mxCell>
        <mxCell id="etBZ5mgMGRcYt6O1adPR-31" value="" style="endArrow=none;html=1;fontFamily=Verdana;fontSize=13;edgeStyle=orthogonalEdgeStyle;rounded=0;endFill=0;startArrow=ERmany;startFill=0;" parent="1" source="etBZ5mgMGRcYt6O1adPR-19" target="PjVFe46A4u6WG3SpOXqw-2" edge="1">
          <mxGeometry width="50" height="50" relative="1" as="geometry">
            <mxPoint x="620" y="460" as="sourcePoint" />
            <mxPoint x="670" y="410" as="targetPoint" />
          </mxGeometry>
        </mxCell>
        <mxCell id="PjVFe46A4u6WG3SpOXqw-2" value="&lt;div style=&quot;text-align: center ; font-size: 13px&quot;&gt;&lt;b style=&quot;font-size: 13px&quot;&gt;TeacherCourse&lt;/b&gt;&lt;/div&gt;&lt;hr style=&quot;font-size: 13px&quot;&gt;&lt;table style=&quot;font-size: 13px&quot;&gt;&lt;tbody style=&quot;font-size: 13px&quot;&gt;&lt;tr style=&quot;font-size: 13px&quot;&gt;&lt;td style=&quot;font-size: 13px&quot;&gt;teacher_position&lt;/td&gt;&lt;td style=&quot;font-size: 13px&quot;&gt;&lt;blockquote style=&quot;margin: 0px 0px 0px 40px ; border: none ; padding: 0px ; font-size: 13px&quot;&gt;teacher_position&lt;/blockquote&gt;&lt;/td&gt;&lt;td style=&quot;font-size: 13px&quot;&gt;&lt;blockquote style=&quot;margin: 0px 0px 0px 40px ; border: none ; padding: 0px ; font-size: 13px&quot;&gt;M&lt;/blockquote&gt;&lt;/td&gt;&lt;/tr&gt;&lt;/tbody&gt;&lt;/table&gt;" style="rounded=1;whiteSpace=wrap;html=1;labelBackgroundColor=none;fontFamily=Verdana;fontSize=13;align=left;verticalAlign=top;" parent="1" vertex="1">
          <mxGeometry x="728.75" y="525" width="332.5" height="60" as="geometry" />
        </mxCell>
        <mxCell id="PjVFe46A4u6WG3SpOXqw-3" value="" style="endArrow=none;html=1;fontFamily=Verdana;fontSize=13;edgeStyle=orthogonalEdgeStyle;rounded=0;endFill=0;startArrow=ERmany;startFill=0;" parent="1" source="etBZ5mgMGRcYt6O1adPR-20" target="PjVFe46A4u6WG3SpOXqw-2" edge="1">
          <mxGeometry width="50" height="50" relative="1" as="geometry">
            <mxPoint x="450" y="565" as="sourcePoint" />
            <mxPoint x="807.5" y="565" as="targetPoint" />
          </mxGeometry>
        </mxCell>
        <mxCell id="UJ1096FwmQBo0KDrU6Bx-1" value="&lt;div style=&quot;text-align: center ; font-size: 13px&quot;&gt;&lt;b&gt;CourseMember&lt;/b&gt;&lt;/div&gt;&lt;hr style=&quot;font-size: 13px&quot;&gt;&lt;table style=&quot;font-size: 13px&quot;&gt;&lt;tbody style=&quot;font-size: 13px&quot;&gt;&lt;tr&gt;&lt;td&gt;&lt;u&gt;course_member_id&lt;/u&gt;&lt;br&gt;&lt;/td&gt;&lt;td&gt;&lt;blockquote style=&quot;margin: 0 0 0 40px ; border: none ; padding: 0px&quot;&gt;id&lt;/blockquote&gt;&lt;/td&gt;&lt;td&gt;&lt;blockquote style=&quot;margin: 0 0 0 40px ; border: none ; padding: 0px&quot;&gt;M, PK&lt;/blockquote&gt;&lt;/td&gt;&lt;/tr&gt;&lt;tr style=&quot;font-size: 13px&quot;&gt;&lt;td style=&quot;font-size: 13px&quot;&gt;passed&lt;/td&gt;&lt;td style=&quot;font-size: 13px&quot;&gt;&lt;blockquote style=&quot;margin: 0px 0px 0px 40px ; border: none ; padding: 0px ; font-size: 13px&quot;&gt;boolean&lt;/blockquote&gt;&lt;/td&gt;&lt;td style=&quot;font-size: 13px&quot;&gt;&lt;blockquote style=&quot;margin: 0px 0px 0px 40px ; border: none ; padding: 0px ; font-size: 13px&quot;&gt;M&lt;/blockquote&gt;&lt;/td&gt;&lt;/tr&gt;&lt;/tbody&gt;&lt;/table&gt;" style="rounded=0;whiteSpace=wrap;html=1;labelBackgroundColor=none;fontFamily=Verdana;fontSize=13;align=left;verticalAlign=top;" vertex="1" parent="1">
          <mxGeometry x="80" y="275" width="322.5" height="80" as="geometry" />
        </mxCell>
        <mxCell id="UJ1096FwmQBo0KDrU6Bx-2" value="Course members&lt;br&gt;have marks" style="endArrow=none;html=1;fontFamily=Verdana;fontSize=13;edgeStyle=orthogonalEdgeStyle;rounded=0;endFill=0;startArrow=ERmany;startFill=0;entryX=0.5;entryY=1;entryDx=0;entryDy=0;exitX=0;exitY=0.5;exitDx=0;exitDy=0;" edge="1" parent="1" source="etBZ5mgMGRcYt6O1adPR-21" target="UJ1096FwmQBo0KDrU6Bx-1">
          <mxGeometry width="50" height="50" relative="1" as="geometry">
            <mxPoint x="285" y="220" as="sourcePoint" />
            <mxPoint x="285" y="290" as="targetPoint" />
          </mxGeometry>
        </mxCell>
      </root>
    </mxGraphModel>
  </diagram>
</mxfile>
